<svg class ="cookie" width="100" height="100" viewBox="0 0 100 100" fill="none" xmlns="http://www.w3.org/2000/svg">
<g id="cookies-svgrepo-com 1" clip-path="url(#clip0_1_21)">
<g>
<path id="Vector" d="M93.6781 48.5078L88.924 49.4586C87.342 49.775 85.7519 48.9521 85.0967 47.4777L80.0043 36.0195C79.5732 35.0494 78.7193 34.3322 77.6896 34.0746L75.0367 33.4115C73.5016 33.0277 72.4248 31.6486 72.4248 30.0662V11.6803C72.4248 10.8211 72.1039 9.99277 71.5252 9.35761L65.1201 2.3291C59.3453 0.500388 53.1203 -0.315432 46.6484 0.110739C21.7744 1.74941 1.62421 21.9838 0.106437 46.8652C-1.66446 75.9 21.3586 100 50.0107 100C77.3394 100 99.533 78.0713 99.9893 50.8514L95.8967 48.8051C95.2107 48.4619 94.4301 48.3574 93.6781 48.5078Z" fill="#FFE6A1"/>
<g id="Group">
<path id="Vector_2" d="M65.5279 84.4826C65.2244 84.4826 64.9254 84.4652 64.6232 84.4597C62.7287 86.5849 59.9783 87.9308 56.9072 87.9308C52.3838 87.9308 48.5486 85.0226 47.143 80.9781C40.9557 78.5295 35.3748 74.8865 30.6846 70.3263C29.975 70.5402 29.2381 70.6894 28.4588 70.6894C24.1738 70.6894 20.7002 67.2158 20.7002 62.9308C20.7002 61.4344 21.1439 60.0494 21.8779 58.8642C21.8254 58.7703 21.7693 58.6791 21.7172 58.5847C16.3354 58.2199 12.0797 53.7502 12.0797 48.2758C12.0797 45.0494 13.5574 42.1695 15.8721 40.2722C15.6527 38.3717 15.5279 36.4424 15.5279 34.4826C15.5279 24.6488 18.3783 15.4861 23.2812 7.7533C9.29961 16.6181 0.0107422 32.2195 0.0107422 50C0.0107422 77.6142 22.3965 100 50.0107 100C67.7912 100 83.3924 90.7111 92.2574 76.7295C84.5246 81.6324 75.3619 84.4826 65.5279 84.4826Z" fill="#FFD796"/>
<path id="Vector_3" d="M38.8039 41.3792C41.1844 41.3792 43.1142 39.4494 43.1142 37.0689C43.1142 34.6884 41.1844 32.7585 38.8039 32.7585C36.4233 32.7585 34.4935 34.6884 34.4935 37.0689C34.4935 39.4494 36.4233 41.3792 38.8039 41.3792Z" fill="#FFD796"/>
<path id="Vector_4" d="M84.4936 69.8275C86.8741 69.8275 88.8039 67.8977 88.8039 65.5171C88.8039 63.1366 86.8741 61.2068 84.4936 61.2068C82.113 61.2068 80.1832 63.1366 80.1832 65.5171C80.1832 67.8977 82.113 69.8275 84.4936 69.8275Z" fill="#FFD796"/>
<path id="Vector_5" d="M45.2693 69.8275C46.9357 69.8275 48.2865 68.4767 48.2865 66.8103C48.2865 65.144 46.9357 63.7932 45.2693 63.7932C43.603 63.7932 42.2521 65.144 42.2521 66.8103C42.2521 68.4767 43.603 69.8275 45.2693 69.8275Z" fill="#FFD796"/>
<path id="Vector_6" d="M68.5453 42.2412C70.2117 42.2412 71.5625 40.8903 71.5625 39.224C71.5625 37.5576 70.2117 36.2068 68.5453 36.2068C66.879 36.2068 65.5281 37.5576 65.5281 39.224C65.5281 40.8903 66.879 42.2412 68.5453 42.2412Z" fill="#FFD796"/>
<path id="Vector_7" d="M56.4764 15.5172C58.1427 15.5172 59.4935 14.1663 59.4935 12.5C59.4935 10.8336 58.1427 9.48279 56.4764 9.48279C54.81 9.48279 53.4592 10.8336 53.4592 12.5C53.4592 14.1663 54.81 15.5172 56.4764 15.5172Z" fill="#FFD796"/>
</g>
<g id="Group_2">
<path id="Vector_8" d="M47.5018 44.4113L45.5086 47.7334C44.3172 49.7189 45.3828 52.2912 47.6291 52.8527L53.5619 54.3359C55.4096 54.7978 57.2819 53.6746 57.7436 51.8269L58.4223 49.1121C58.5596 48.5629 58.5596 47.9887 58.4223 47.4394L57.7047 44.5689C57.2584 42.7832 55.4881 41.6629 53.6832 42.0238L49.7825 42.8039C48.8297 42.9947 48.0018 43.5783 47.5018 44.4113Z" fill="#B97850"/>
<path id="Vector_9" d="M57.4535 65.7564L55.3748 69.2209C54.3414 70.9433 54.993 73.181 56.7895 74.0793L63.407 77.3881C65.3801 78.3748 67.7594 77.2802 68.2945 75.1402L68.9762 72.4136L69.7729 69.2263C70.2688 67.2427 68.9395 65.2656 66.9151 64.9763L60.8977 64.1166C59.5246 63.9205 58.1672 64.5668 57.4535 65.7564Z" fill="#B97850"/>
<path id="Vector_10" d="M21.1744 45.1871L18.6375 49.4154C17.8234 50.7722 18.0373 52.5089 19.1561 53.6279L23.1486 57.6207C24.602 59.074 26.9957 58.9414 28.2797 57.3365L31.7025 53.0578C32.3748 52.2175 32.6162 51.1115 32.3551 50.0673L31.5744 46.9447C31.2512 45.6517 30.2121 44.6611 28.9055 44.3996L24.8074 43.58C23.3785 43.2941 21.9242 43.9375 21.1744 45.1871Z" fill="#B97850"/>
<path id="Vector_11" d="M35.2131 17.1912L33.2568 20.4517C32.1219 22.3433 33.0305 24.7996 35.1232 25.4972L39.3684 26.9123C40.6074 27.3252 41.9734 27.0027 42.8971 26.0793L45.182 23.7943C46.0385 22.9379 46.3828 21.6947 46.0891 20.5197L45.4914 18.1293C45.1076 16.5939 43.7283 15.517 42.1459 15.517H38.1697C36.9588 15.5172 35.8363 16.1527 35.2131 17.1912Z" fill="#B97850"/>
<path id="Vector_12" d="M76.8586 43.8418L74.8627 45.8377C73.5162 47.1841 73.5162 49.3675 74.8627 50.7142L75.8395 51.691C76.8891 52.7406 78.4922 53.0007 79.8199 52.3369L85.4678 49.513C86.9133 48.7902 87.6631 47.1605 87.2711 45.5925L87.0152 44.5693C86.569 42.7836 84.7986 41.6632 82.9938 42.0242L78.6209 42.8988C77.9531 43.032 77.3401 43.3603 76.8586 43.8418Z" fill="#B97850"/>
<path id="Vector_13" d="M64.0369 19.2297L61.7469 22.2832C60.9057 23.4047 60.8274 24.9242 61.5487 26.1264L63.6676 29.6578C64.6805 31.3461 66.899 31.8449 68.5371 30.7529L72.8399 27.8844C74.4871 26.7863 74.8735 24.5299 73.6858 22.9463L71.3467 19.8275C70.9258 19.2664 70.344 18.8469 69.6785 18.6252L67.886 18.0275C66.4778 17.5578 64.9274 18.0422 64.0369 19.2297Z" fill="#B97850"/>
<path id="Vector_14" d="M34.5291 73.708L32.2775 76.5225C30.832 78.3293 31.5412 81.0188 33.6897 81.8783L36.7141 83.0881C37.5363 83.417 38.4533 83.417 39.2754 83.0881L42.6695 81.7303C44.7031 80.917 45.4731 78.4383 44.2582 76.6158L43.6752 75.7414C43.3422 75.242 42.885 74.8385 42.3482 74.5699L38.7643 72.7779C37.3094 72.0508 35.5447 72.4385 34.5291 73.708Z" fill="#B97850"/>
</g>
<g id="Group_3">
<path id="Vector_15" d="M27.4273 57.2112L23.4348 53.2186C22.316 52.0998 22.102 50.3629 22.9162 49.0063L25.4531 44.778C25.6695 44.4174 25.9555 44.1246 26.2717 43.8731L24.8076 43.5805C23.3787 43.2948 21.9242 43.9381 21.1744 45.1875L18.6375 49.4159C17.8234 50.7727 18.0373 52.5094 19.1561 53.6284L23.1486 57.6209C24.4957 58.968 26.6398 58.9356 27.9699 57.6481C27.7793 57.5217 27.5957 57.3797 27.4273 57.2112Z" fill="#A5694B"/>
<path id="Vector_16" d="M42.8218 25.6848L38.5767 24.2699C36.4842 23.5723 35.5752 21.116 36.7103 19.2244L38.6666 15.9639C38.766 15.7979 38.8974 15.6614 39.0207 15.5172H38.1695C36.9584 15.5172 35.8359 16.1528 35.2127 17.1914L33.2564 20.4518C32.1213 22.3434 33.0299 24.7996 35.1228 25.4973L39.3679 26.9123C40.607 27.3252 41.973 27.0028 42.8967 26.0793L43.2179 25.758C43.0859 25.7307 42.9519 25.7281 42.8218 25.6848Z" fill="#A5694B"/>
<path id="Vector_17" d="M56.8336 53.3445L50.9008 51.8613C48.6543 51.2996 47.5887 48.7275 48.7803 46.742L50.7735 43.4199C51.0108 43.0244 51.326 42.6906 51.6895 42.4229L49.7825 42.8043C48.8299 42.9947 48.0016 43.5785 47.5018 44.4117L45.5086 47.7338C44.3172 49.7193 45.3828 52.2916 47.6291 52.8531L53.5619 54.3363C54.8118 54.6488 56.0617 54.2246 56.8897 53.3529C56.8709 53.3482 56.8524 53.3492 56.8336 53.3445Z" fill="#A5694B"/>
<path id="Vector_18" d="M66.8884 29.3596L64.7695 25.8282C64.0482 24.626 64.1265 23.1069 64.9677 21.985L67.2578 18.9317C67.5086 18.5971 67.8199 18.335 68.1574 18.1176L67.8857 18.0272C66.4775 17.5579 64.9271 18.0422 64.0365 19.2295L61.7467 22.2829C60.9054 23.4045 60.8271 24.9239 61.5484 26.126L63.6674 29.6575C64.6769 31.3401 66.8834 31.8391 68.5197 30.7616C67.864 30.4887 67.2836 30.018 66.8884 29.3596Z" fill="#A5694B"/>
<path id="Vector_19" d="M78.6069 51.4614C77.2602 50.1147 77.2602 47.9315 78.6069 46.5848L80.6027 44.5889C81.084 44.1077 81.6971 43.7793 82.3649 43.6459L86.0455 42.9098C85.258 42.1614 84.1336 41.7959 82.9936 42.0241L78.6207 42.8987C77.9531 43.0323 77.3401 43.3604 76.8586 43.8416L74.8627 45.8375C73.5162 47.1842 73.5162 49.3674 74.8627 50.7141L75.8395 51.6909C76.824 52.6754 78.2889 52.9334 79.5631 52.418L78.6069 51.4614Z" fill="#A5694B"/>
<path id="Vector_20" d="M61.0611 73.7901C59.2647 72.8918 58.6129 70.6541 59.6465 68.9317L61.7252 65.4674C61.9979 65.0133 62.3832 64.669 62.8082 64.3899L60.8981 64.117C59.5246 63.9207 58.1674 64.5668 57.4537 65.7565L55.375 69.2209C54.3416 70.9434 54.9932 73.1811 56.7897 74.0793L63.4072 77.3881C64.7262 78.0477 66.2147 77.7629 67.2242 76.8719L61.0611 73.7901Z" fill="#A5694B"/>
<path id="Vector_21" d="M40.1623 82.5117L37.1379 81.3019C34.9897 80.4428 34.2805 77.7529 35.7258 75.9461L37.9773 73.1316C38.1203 72.9529 38.2809 72.7967 38.4504 72.6537C37.0625 72.1223 35.4734 72.5273 34.5291 73.708L32.2775 76.5225C30.832 78.3293 31.5412 81.0187 33.6897 81.8783L36.7141 83.0881C37.5363 83.417 38.4533 83.417 39.2754 83.0881L40.4818 82.6055C40.375 82.5744 40.2662 82.5533 40.1623 82.5117Z" fill="#A5694B"/>
</g>
<path id="Vector_22" d="M13.8017 70.6879C13.5434 70.6879 13.2797 70.6291 13.0324 70.506C12.1805 70.08 11.8351 69.0447 12.2613 68.1927L13.9855 64.7445C14.4117 63.8925 15.4445 63.5507 16.2988 63.9734C17.1508 64.3996 17.4961 65.4347 17.0699 66.2867L15.3457 69.7349C15.0435 70.3392 14.435 70.6879 13.8017 70.6879Z" fill="#C98850"/>
<path id="Vector_23" d="M44.8383 93.1033H43.1141C42.1619 93.1033 41.3898 92.3323 41.3898 91.3791C41.3898 90.4262 42.1619 89.6549 43.1141 89.6549H44.8383C45.7904 89.6549 46.5625 90.426 46.5625 91.3791C46.5625 92.3323 45.7904 93.1033 44.8383 93.1033Z" fill="#925F4A"/>
<path id="Vector_24" d="M37.9401 60.3448C37.6817 60.3448 37.418 60.286 37.1707 60.1629C36.3188 59.7368 35.9735 58.7014 36.3996 57.8496L38.1238 54.4014C38.549 53.5512 39.582 53.2077 40.4371 53.6303C41.2891 54.0565 41.6344 55.0916 41.2082 55.9436L39.484 59.3918C39.1819 59.9963 38.5731 60.3448 37.9401 60.3448Z" fill="#C98850"/>
<g id="Group_4">
<path id="Vector_25" d="M27.5953 32.7586C27.3369 32.7586 27.0733 32.6998 26.826 32.5768L23.3778 30.8525C22.5258 30.4264 22.1805 29.3912 22.6067 28.5393C23.0319 27.6891 24.0656 27.3438 24.9199 27.7682L28.3682 29.4922C29.2201 29.9184 29.5654 30.9535 29.1393 31.8055C28.8371 32.41 28.2283 32.7586 27.5953 32.7586Z" fill="#925F4A"/>
<path id="Vector_26" d="M48.2867 8.6205H44.8385C43.8863 8.6205 43.1143 7.8494 43.1143 6.89628C43.1143 5.94315 43.8863 5.17206 44.8385 5.17206H48.2867C49.2389 5.17206 50.0109 5.94315 50.0109 6.89628C50.0109 7.8494 49.2389 8.6205 48.2867 8.6205Z" fill="#925F4A"/>
</g>
<path id="Vector_27" d="M55.1849 34.4826C54.5517 34.4826 53.9431 34.1342 53.641 33.5297L51.9168 30.0814C51.4906 29.2295 51.8359 28.1939 52.6879 27.7682C53.5416 27.3438 54.5761 27.6891 55.0011 28.5393L56.7254 31.9875C57.1515 32.8395 56.8062 33.875 55.9543 34.3008C55.7066 34.4238 55.4433 34.4826 55.1849 34.4826Z" fill="#C98850"/>
<g id="Group_5">
<path id="Vector_28" d="M7.86835 42.9252C7.63651 42.8109 7.42616 42.6416 7.25838 42.4219C6.68221 41.6633 6.83045 40.5818 7.58924 40.0059L10.6599 37.6746C11.418 37.0983 12.4986 37.2479 13.076 38.0055C13.6521 38.7641 13.5039 39.8455 12.7451 40.4215L9.6746 42.7526C9.13612 43.1611 8.43612 43.2049 7.86835 42.9252Z" fill="#925F4A"/>
<path id="Vector_29" d="M72.4246 62.069C71.9834 62.069 71.5422 61.9006 71.2056 61.5639L67.7574 58.1156C67.084 57.4422 67.084 56.351 67.7574 55.6776C68.4308 55.0041 69.522 55.0041 70.1955 55.6776L73.6437 59.1258C74.3172 59.7992 74.3172 60.8905 73.6437 61.5639C73.3068 61.9006 72.8656 62.069 72.4246 62.069Z" fill="#925F4A"/>
</g>
<path id="Vector_30" d="M75.8728 79.3103C75.4316 79.3103 74.9904 79.142 74.6539 78.8053C73.9804 78.1318 73.9804 77.0406 74.6539 76.3672L76.3781 74.643C77.0515 73.9695 78.1428 73.9695 78.8162 74.643C79.4896 75.3164 79.4896 76.4076 78.8162 77.081L77.092 78.8053C76.7551 79.142 76.314 79.3103 75.8728 79.3103Z" fill="#C98850"/>
</g>
<g id="crumbs">
<g id="Group_6">
<path id="Vector_31" d="M79.3211 6.89646V11.2465C79.3211 12.4664 80.5529 13.3004 81.6856 12.8472L86.858 10.7783C87.5125 10.5164 87.9418 9.8824 87.9418 9.17751V6.89646C87.9418 5.94431 87.1697 5.17224 86.2176 5.17224H81.0451C80.0932 5.17224 79.3211 5.94431 79.3211 6.89646Z" fill="#FFE6A1"/>
<path id="Vector_32" d="M83.0072 20.4891L81.907 28.191C81.6482 30.0027 82.85 31.7012 84.6443 32.06L87.8019 32.6914C89.1723 32.9656 90.5723 32.3855 91.3475 31.2228L92.535 29.4416C93.15 28.5187 93.284 27.3564 92.8945 26.3182L89.2975 16.7262C88.85 15.5332 87.3197 15.2018 86.4187 16.1027L83.9828 18.5385C83.4551 19.066 83.1129 19.7506 83.0072 20.4891Z" fill="#FFE6A1"/>
</g>
<g id="Group_7">
<path id="Vector_33" d="M91.651 29.6287L88.4934 28.9973C86.6989 28.6383 85.4973 26.9398 85.7561 25.1283L86.8563 17.4266C86.9545 16.7396 87.2749 16.1123 87.7409 15.6018C87.2729 15.5781 86.7924 15.7287 86.4188 16.1021L83.9827 18.5381C83.4551 19.0656 83.1127 19.7502 83.0075 20.4887L81.9073 28.1904C81.6485 30.0023 82.8502 31.7006 84.6446 32.0594L87.8022 32.6908C89.1723 32.9646 90.5725 32.385 91.3477 31.2223L92.3866 29.6641C92.142 29.6689 91.8973 29.6781 91.651 29.6287Z" fill="#FFD796"/>
<path id="Vector_34" d="M85.1338 9.3988C84.0012 9.85173 82.7694 9.01775 82.7694 7.79802V5.17224H81.0451C80.093 5.17224 79.3209 5.94431 79.3209 6.89646V11.2465C79.3209 12.4664 80.5528 13.3004 81.6854 12.8472L86.8578 10.7783C87.5123 10.5164 87.9416 9.88259 87.9416 9.17751V8.27576L85.1338 9.3988Z" fill="#FFD796"/>
<path id="Vector_35" d="M92.2497 37.6021L91.2305 39.6404C90.9879 40.1257 90.9879 40.697 91.2305 41.1824L91.6956 42.1128C92.1594 43.0404 93.3311 43.3517 94.194 42.7765L96.9735 40.9236C97.4532 40.6037 97.7413 40.0654 97.7413 39.489V37.6314C97.7413 36.4546 96.5883 35.6236 95.4719 35.9959L93.2463 36.7376C92.8127 36.882 92.4541 37.1929 92.2497 37.6021Z" fill="#FFD796"/>
</g>
</g>
</g>
<defs>
<clipPath id="clip0_1_21">
<rect width="100" height="100" fill="white"/>
</clipPath>
</defs>
</svg>
